<svg id="Layer_1" xmlns="http://www.w3.org/2000/svg" width="406" height="514"><defs><style>.cls-2{stroke:#202124;stroke-linecap:round;stroke-linejoin:round;stroke-width:1.5px;fill:none}.cls-4{fill:#f7fafb}.cls-10,.cls-11,.cls-4,.cls-8,.cls-9{stroke-width:0}.cls-8{fill:#31829d}.cls-9{fill:#8c7fb7}.cls-10{fill:#805aa2}.cls-11{fill:#80af68}</style></defs><path style="stroke-width:0;fill:#f8f9fb" d="M0 0h406v514H0z"/><rect class="cls-8" x="17.26" y="14.14" width="100.24" height="33.51" rx="5.6" ry="5.6"/><path class="cls-4" d="M49.67 25.1h1.54v4.17h4.69V25.1h1.53v10.02H55.9v-4.4h-4.69v4.4h-1.54V25.1Zm12.07 1.46h-2.81V25.1h7.15v1.46h-2.8v8.57h-1.54v-8.57Zm5.84-1.46h2.07l2.93 7.63h.08l2.94-7.63h2.07v10.02h-1.51v-5.67l.08-1.78h-.08l-2.93 7.45h-1.22l-2.93-7.45H69l.08 1.78v5.67h-1.51V25.1Zm12.36 0h1.54v8.57h4.31v1.46h-5.85V25.11Z"/><rect class="cls-8" x="17.26" y="106.21" width="100.24" height="33.51" rx="5.6" ry="5.6"/><path class="cls-4" d="M51.47 117.17h3.21c1.04 0 1.94.21 2.71.63s1.36 1.01 1.78 1.77c.42.76.62 1.63.62 2.61s-.21 1.85-.62 2.61c-.42.76-1.01 1.35-1.78 1.77s-1.67.63-2.71.63h-3.21v-10.02Zm3.16 8.57c1.14 0 2.02-.31 2.65-.94.63-.63.94-1.5.94-2.61s-.31-1.98-.94-2.61a3.58 3.58 0 0 0-2.65-.94h-1.62v7.11h1.62Zm8.96.98a5.09 5.09 0 0 1-1.87-1.9c-.45-.8-.68-1.68-.68-2.64s.23-1.84.68-2.64a5.09 5.09 0 0 1 4.52-2.6 5.04 5.04 0 0 1 4.5 2.6c.45.8.68 1.68.68 2.64a5.3 5.3 0 0 1-2.54 4.54c-.79.47-1.67.7-2.64.7s-1.85-.23-2.65-.7Zm4.49-1.24c.56-.32.99-.77 1.32-1.34.32-.57.48-1.23.48-1.95s-.16-1.38-.48-1.95a3.47 3.47 0 0 0-1.32-1.34 3.64 3.64 0 0 0-1.84-.48 3.6 3.6 0 0 0-3.16 1.82c-.32.57-.48 1.22-.48 1.95s.16 1.38.48 1.95c.32.57.76 1.02 1.32 1.34.56.32 1.17.48 1.84.48s1.29-.16 1.84-.48Zm5.12-8.31h2.07l2.93 7.63h.08l2.94-7.63h2.07v10.02h-1.51v-5.67l.08-1.78h-.08l-2.93 7.45h-1.22l-2.93-7.45h-.08l.08 1.78v5.67h-1.51v-10.02Z"/><path class="cls-2" d="M67.38 47.65v58.56m0 33.51v32.31h271.24v-32.31M73.86 99.74l-6.48 6.47-6.47-6.47m63.07 29.7-6.48-6.48 6.48-6.47"/><rect class="cls-10" x="288.5" y="14.14" width="100.24" height="33.51" rx="5.6" ry="5.6"/><path class="cls-4" d="M328.55 34.67c-.8-.46-1.43-1.09-1.88-1.89s-.69-1.69-.69-2.66a5.25 5.25 0 0 1 2.57-4.55c.8-.46 1.68-.69 2.65-.69 1.5 0 2.74.55 3.71 1.64l-1.08 1.05a3.26 3.26 0 0 0-2.61-1.23c-.68 0-1.3.16-1.86.47-.56.31-1 .76-1.33 1.33-.33.57-.49 1.23-.49 1.98s.16 1.41.49 1.98c.33.57.77 1.02 1.33 1.33.56.31 1.18.47 1.86.47 1.14 0 2.09-.47 2.87-1.41l1.11 1.06a5.1 5.1 0 0 1-3.99 1.81c-.97 0-1.85-.23-2.65-.69Zm9.04-.05a3.89 3.89 0 0 1-1.39-2.04l1.46-.59c.15.56.42 1.02.8 1.37.38.35.84.53 1.39.53.5 0 .93-.13 1.28-.39s.53-.62.53-1.08c0-.42-.15-.77-.46-1.04a4.98 4.98 0 0 0-1.6-.8l-.63-.22a4.57 4.57 0 0 1-1.7-1.02 2.29 2.29 0 0 1-.68-1.73c0-.49.13-.95.4-1.37.27-.42.64-.75 1.12-.99s1.02-.36 1.63-.36a3.2 3.2 0 0 1 3.15 2.08l-1.39.59c-.09-.34-.29-.63-.59-.87s-.69-.36-1.16-.36-.84.12-1.16.36-.48.55-.48.92c0 .35.14.63.43.86s.73.45 1.32.65l.64.22c.86.3 1.52.69 1.99 1.16.47.48.7 1.11.7 1.9 0 .65-.17 1.2-.5 1.65a3.1 3.1 0 0 1-1.27.99c-.52.21-1.05.32-1.59.32-.83 0-1.58-.24-2.24-.73Zm8.05 0a3.89 3.89 0 0 1-1.39-2.04l1.46-.59c.15.56.42 1.02.8 1.37.38.35.84.53 1.39.53.5 0 .93-.13 1.28-.39s.53-.62.53-1.08c0-.42-.15-.77-.46-1.04a4.98 4.98 0 0 0-1.6-.8l-.63-.22a4.57 4.57 0 0 1-1.7-1.02 2.29 2.29 0 0 1-.68-1.73c0-.49.13-.95.4-1.37s.64-.75 1.12-.99 1.03-.36 1.63-.36a3.2 3.2 0 0 1 3.15 2.08l-1.39.59a1.64 1.64 0 0 0-.59-.87c-.3-.24-.69-.36-1.16-.36s-.84.12-1.16.36-.48.55-.48.92c0 .35.14.63.43.86s.73.45 1.32.65l.64.22c.86.3 1.52.69 1.99 1.16.47.48.7 1.11.7 1.9 0 .65-.17 1.2-.5 1.65s-.76.77-1.27.99c-.52.21-1.05.32-1.59.32-.83 0-1.58-.24-2.24-.73Z"/><rect class="cls-10" x="288.5" y="106.21" width="100.24" height="33.51" rx="5.6" ry="5.6"/><path class="cls-4" d="M316.55 126.74a5.25 5.25 0 0 1-2.57-4.55 5.25 5.25 0 0 1 2.57-4.55c.8-.46 1.68-.69 2.65-.69 1.5 0 2.74.55 3.71 1.64l-1.08 1.05a3.23 3.23 0 0 0-2.62-1.23c-.68 0-1.3.16-1.86.47-.56.31-1 .76-1.33 1.33-.33.57-.49 1.23-.49 1.98s.16 1.41.49 1.98c.33.57.77 1.02 1.33 1.33.56.31 1.18.47 1.86.47 1.14 0 2.1-.47 2.87-1.41l1.11 1.06a5.19 5.19 0 0 1-3.99 1.81c-.97 0-1.86-.23-2.65-.69Zm9.03-.05a3.89 3.89 0 0 1-1.39-2.04l1.46-.59c.15.56.42 1.02.8 1.37.38.35.84.53 1.39.53.5 0 .93-.13 1.28-.39s.53-.62.53-1.08c0-.42-.15-.77-.46-1.04a4.98 4.98 0 0 0-1.6-.8l-.63-.22a4.57 4.57 0 0 1-1.7-1.02 2.29 2.29 0 0 1-.68-1.73c0-.49.13-.95.4-1.37s.64-.75 1.12-.99 1.03-.36 1.63-.36a3.2 3.2 0 0 1 3.15 2.08l-1.39.59a1.64 1.64 0 0 0-.59-.87c-.3-.24-.69-.36-1.16-.36s-.84.12-1.16.36-.48.55-.48.92c0 .35.14.63.43.86s.73.45 1.32.65l.64.22c.86.3 1.52.69 1.99 1.16.47.48.7 1.11.7 1.9 0 .65-.17 1.2-.5 1.65s-.76.77-1.27.99c-.52.21-1.05.32-1.59.32-.83 0-1.58-.24-2.24-.73Zm8.05 0a3.89 3.89 0 0 1-1.39-2.04l1.46-.59c.15.56.42 1.02.8 1.37.38.35.84.53 1.39.53.5 0 .93-.13 1.28-.39s.53-.62.53-1.08c0-.42-.15-.77-.46-1.04a4.98 4.98 0 0 0-1.6-.8l-.63-.22a4.57 4.57 0 0 1-1.7-1.02 2.29 2.29 0 0 1-.68-1.73c0-.49.13-.95.4-1.37.27-.42.64-.75 1.12-.99s1.02-.36 1.63-.36a3.2 3.2 0 0 1 3.15 2.08l-1.39.59c-.09-.34-.29-.63-.59-.87s-.69-.36-1.16-.36-.84.12-1.16.36-.48.55-.48.92c0 .35.14.63.43.86s.73.45 1.32.65l.64.22c.86.3 1.52.69 1.99 1.16.47.48.7 1.11.7 1.9 0 .65-.17 1.2-.5 1.65a3.1 3.1 0 0 1-1.27.99c-.52.21-1.05.32-1.59.32-.83 0-1.58-.24-2.24-.73Zm9.43.03c-.79-.47-1.42-1.1-1.87-1.9s-.68-1.68-.68-2.64.23-1.84.68-2.64a5.09 5.09 0 0 1 4.52-2.6 5.06 5.06 0 0 1 4.5 2.6c.45.8.68 1.68.68 2.64a5.3 5.3 0 0 1-2.54 4.54c-.79.47-1.67.7-2.64.7s-1.85-.23-2.65-.7Zm4.49-1.24c.56-.32.99-.77 1.32-1.34.32-.57.48-1.23.48-1.95s-.16-1.38-.48-1.95a3.47 3.47 0 0 0-1.32-1.34 3.64 3.64 0 0 0-1.84-.48 3.6 3.6 0 0 0-3.16 1.82c-.32.57-.48 1.22-.48 1.95s.16 1.38.48 1.95c.32.57.76 1.02 1.32 1.34.56.32 1.17.48 1.84.48s1.29-.16 1.84-.48Zm5.11-8.31h2.07l2.93 7.63h.08l2.94-7.63h2.07v10.02h-1.51v-5.67l.08-1.78h-.08l-2.93 7.45h-1.22l-2.93-7.45h-.08l.08 1.78v5.67h-1.51v-10.02Z"/><rect x="152.88" y="106.21" width="100.24" height="33.51" rx="5.6" ry="5.6" style="fill:#de7535;stroke-width:0"/><path class="cls-4" d="M170.05 126.8c-.57-.42-.97-1-1.2-1.74l1.43-.59c.15.51.38.89.69 1.13.31.24.67.36 1.09.36.49 0 .89-.17 1.18-.5.29-.34.43-.78.43-1.34v-6.94h1.54v6.89a3.8 3.8 0 0 1-.41 1.82c-.27.5-.64.89-1.12 1.15s-1.02.39-1.62.39c-.77 0-1.43-.21-2-.62Zm7.87.32a2.27 2.27 0 0 1-1.28-2.1c0-.49.13-.92.39-1.28a2.6 2.6 0 0 1 1.06-.83c.45-.19.95-.29 1.5-.29a4.99 4.99 0 0 1 1.96.39v-.38c0-.46-.17-.83-.5-1.11a1.98 1.98 0 0 0-1.3-.43c-.36 0-.71.08-1.04.24-.33.16-.59.39-.78.67l-1.04-.8c.31-.44.72-.78 1.23-1.02a3.88 3.88 0 0 1 1.67-.36c1.03 0 1.82.25 2.39.76.56.51.85 1.22.85 2.14v4.47h-1.47v-.88h-.08c-.21.32-.5.58-.88.79s-.82.31-1.3.31c-.51 0-.97-.1-1.37-.3Zm2.66-1.2a2.03 2.03 0 0 0 .98-1.73 3.17 3.17 0 0 0-1.68-.42c-.59 0-1.02.12-1.29.35-.28.23-.41.54-.41.92 0 .34.13.61.38.83.25.21.59.32 1.01.32a2 2 0 0 0 1.02-.27Zm3.19-5.86h1.68l2 5.19h.07l2.04-5.19h1.65l-2.98 7.14h-1.51l-2.95-7.14Zm9.16 7.06a2.27 2.27 0 0 1-1.28-2.1c0-.49.13-.92.39-1.28a2.6 2.6 0 0 1 1.06-.83c.45-.19.95-.29 1.5-.29a4.99 4.99 0 0 1 1.96.39v-.38c0-.46-.17-.83-.5-1.11a1.98 1.98 0 0 0-1.3-.43c-.36 0-.71.08-1.04.24-.33.16-.59.39-.78.67l-1.04-.8c.31-.44.72-.78 1.23-1.02a3.88 3.88 0 0 1 1.67-.36c1.03 0 1.82.25 2.39.76.56.51.85 1.22.85 2.14v4.47h-1.47v-.88h-.08c-.21.32-.5.58-.88.79s-.82.31-1.3.31c-.51 0-.97-.1-1.37-.3Zm2.66-1.2a2.03 2.03 0 0 0 .98-1.73 3.17 3.17 0 0 0-1.68-.42c-.59 0-1.02.12-1.29.35-.28.23-.41.54-.41.92 0 .34.13.61.38.83.25.21.59.32 1.01.32a2 2 0 0 0 1.02-.27Zm5.04.77a3.89 3.89 0 0 1-1.39-2.04l1.46-.59c.15.56.42 1.02.8 1.37.38.35.84.53 1.39.53.5 0 .93-.13 1.28-.39s.53-.62.53-1.08c0-.42-.15-.77-.46-1.04a4.98 4.98 0 0 0-1.6-.8l-.63-.22a4.57 4.57 0 0 1-1.7-1.02 2.29 2.29 0 0 1-.68-1.73c0-.49.13-.95.4-1.37s.64-.75 1.12-.99 1.02-.36 1.63-.36a3.2 3.2 0 0 1 3.15 2.08l-1.39.59c-.09-.34-.29-.63-.59-.87s-.69-.36-1.16-.36-.84.12-1.16.36-.48.55-.48.92c0 .35.14.63.43.86.29.23.73.45 1.32.65l.64.22c.86.3 1.52.69 1.99 1.16.47.48.7 1.11.7 1.9 0 .65-.17 1.2-.5 1.65s-.76.77-1.27.99c-.52.21-1.05.32-1.59.32-.83 0-1.58-.24-2.24-.73Zm8.52.24c-.56-.33-1-.78-1.31-1.35-.31-.57-.47-1.22-.47-1.95s.16-1.38.47-1.95c.31-.57.75-1.02 1.31-1.35s1.19-.49 1.9-.49c.78 0 1.45.17 2 .52s.94.83 1.18 1.45l-1.37.56c-.34-.77-.95-1.15-1.83-1.15a2.05 2.05 0 0 0-1.86 1.15c-.19.36-.29.78-.29 1.26s.1.9.29 1.26a2.05 2.05 0 0 0 1.86 1.15c.45 0 .83-.1 1.16-.3.32-.2.57-.49.75-.88l1.36.59c-.28.61-.7 1.09-1.25 1.44s-1.21.53-1.99.53c-.71 0-1.34-.16-1.9-.49Zm6.36-6.87h1.43v1.05h.08c.16-.36.43-.67.82-.91.39-.24.81-.36 1.25-.36.33 0 .62.05.87.15v1.55a2.7 2.7 0 0 0-1.11-.25c-.53 0-.97.21-1.32.62s-.52.91-.52 1.5v3.79h-1.51v-7.14Zm5.76-1.35c-.2-.2-.3-.44-.3-.72s.1-.52.3-.71c.2-.2.44-.29.72-.29s.52.1.72.29c.2.2.3.43.3.71s-.1.52-.3.72-.44.3-.72.3-.52-.1-.72-.3Zm-.03 1.35h1.51v7.14h-1.51v-7.14Zm3.33 0H226v.97h.08c.21-.34.51-.62.92-.85a3.2 3.2 0 0 1 3.13.15c.52.33.93.78 1.23 1.35.3.57.45 1.23.45 1.95s-.15 1.38-.45 1.96a3.29 3.29 0 0 1-2.98 1.83 2.77 2.77 0 0 1-2.3-1.17H226l.08.99v2.98h-1.51v-10.16Zm4.65 5.68c.33-.2.6-.48.79-.85.2-.36.29-.78.29-1.26s-.1-.9-.29-1.26c-.2-.36-.46-.65-.79-.85s-.69-.3-1.07-.3-.73.1-1.06.3-.6.48-.8.85c-.2.36-.3.78-.3 1.26s.1.9.3 1.26c.2.36.47.65.8.85s.68.3 1.06.3.74-.1 1.07-.3Zm5.73 1.53c-.28-.1-.5-.24-.68-.42a2.2 2.2 0 0 1-.6-1.65v-3.82h-1.25v-1.32h1.25v-2.02h1.51v2.02h1.75v1.32h-1.75v3.52c0 .4.08.68.22.85.16.18.4.27.73.27.17 0 .31-.02.43-.06.12-.04.26-.11.41-.2v1.47c-.32.14-.7.21-1.13.21a2.6 2.6 0 0 1-.89-.15Z"/><rect x="152.88" y="205.04" width="100.24" height="33.51" rx="5.6" ry="5.6" style="fill:#72441f;stroke-width:0"/><path class="cls-4" d="M165.19 216h3.51c.61 0 1.16.13 1.65.39s.88.62 1.16 1.09.43.99.43 1.58c0 .67-.22 1.27-.65 1.79s-.98.87-1.63 1.04v.07l2.74 3.98v.08h-1.78l-2.67-3.93h-1.22v3.93h-1.54V216Zm3.47 4.68c.49 0 .89-.15 1.23-.46.33-.31.5-.7.5-1.16 0-.43-.15-.8-.46-1.13-.3-.32-.71-.48-1.21-.48h-1.99v3.23h1.93Zm6.07 5.08a3.44 3.44 0 0 1-1.3-1.35 4 4 0 0 1-.47-1.94c0-.68.15-1.31.46-1.9.3-.58.73-1.05 1.27-1.39a3.29 3.29 0 0 1 1.83-.52c.72 0 1.34.16 1.86.47.52.31.92.74 1.2 1.29.27.55.41 1.18.41 1.88 0 .19 0 .35-.03.48h-5.52c.07.68.31 1.21.73 1.58.42.37.91.55 1.47.55a2.14 2.14 0 0 0 1.96-1.14l1.25.6a3.78 3.78 0 0 1-1.3 1.39c-.54.34-1.19.5-1.95.5a3.6 3.6 0 0 1-1.87-.49Zm3.76-4.12a1.83 1.83 0 0 0-.9-1.43 2.03 2.03 0 0 0-1.06-.26c-.5 0-.93.15-1.28.46-.35.31-.59.72-.72 1.23h3.96Zm2.89-2.75h1.43v.98h.08c.21-.35.51-.64.92-.87.41-.22.85-.34 1.33-.34.86 0 1.51.25 1.96.76.45.51.67 1.21.67 2.09v4.51h-1.5v-4.31c0-.56-.14-.98-.42-1.25a1.54 1.54 0 0 0-1.15-.41c-.35 0-.67.1-.94.29-.28.2-.49.46-.64.78s-.23.68-.23 1.06v3.84h-1.51v-7.14Zm9.43 6.88a3.35 3.35 0 0 1-1.23-1.35c-.3-.58-.45-1.23-.45-1.96s.15-1.38.45-1.95c.3-.57.71-1.02 1.23-1.35a3.2 3.2 0 0 1 3.14-.15c.4.23.7.51.91.85h.08l-.08-.99v-2.86h1.5v10.02h-1.41v-.95h-.08a2.73 2.73 0 0 1-2.3 1.17c-.64 0-1.23-.16-1.75-.48Zm3.03-1.2c.33-.2.6-.48.8-.85.2-.36.3-.78.3-1.26s-.1-.9-.3-1.26c-.2-.36-.47-.65-.8-.85a2 2 0 0 0-2.12 0c-.33.2-.6.48-.8.85-.2.36-.3.78-.3 1.26s.1.9.3 1.26c.2.36.47.65.8.85a2 2 0 0 0 2.12 0Zm5.61 1.19a3.51 3.51 0 0 1-1.3-1.35 4 4 0 0 1-.47-1.94c0-.68.15-1.31.46-1.9.3-.58.73-1.05 1.27-1.39a3.29 3.29 0 0 1 1.83-.52c.72 0 1.34.16 1.86.47.52.31.92.74 1.2 1.29.27.55.41 1.18.41 1.88 0 .19 0 .35-.03.48h-5.52c.07.68.31 1.21.73 1.58s.91.55 1.47.55a2.14 2.14 0 0 0 1.96-1.14l1.25.6a3.78 3.78 0 0 1-1.3 1.39c-.54.34-1.19.5-1.95.5a3.6 3.6 0 0 1-1.87-.49Zm3.76-4.12a1.83 1.83 0 0 0-.9-1.43 2.06 2.06 0 0 0-1.06-.26c-.5 0-.93.15-1.28.46-.35.31-.59.72-.72 1.23h3.96Zm2.9-2.75h1.43v1.05h.08c.16-.36.43-.67.82-.91.39-.24.81-.36 1.25-.36.33 0 .62.05.87.15v1.55a2.7 2.7 0 0 0-1.11-.25c-.53 0-.97.21-1.32.62s-.52.91-.52 1.5v3.79h-1.51v-7.14Zm10.61-1.43h-2.81V216h7.15v1.46h-2.8v8.57h-1.54v-8.57Zm4.75 1.43h1.43v1.05h.08c.16-.36.43-.67.82-.91.39-.24.81-.36 1.25-.36.33 0 .62.05.87.15v1.55a2.7 2.7 0 0 0-1.11-.25c-.53 0-.97.21-1.32.62s-.52.91-.52 1.5v3.79h-1.51v-7.14Zm6.58 6.87a3.51 3.51 0 0 1-1.3-1.35 4 4 0 0 1-.47-1.94c0-.68.15-1.31.46-1.9.3-.58.73-1.05 1.27-1.39a3.29 3.29 0 0 1 1.83-.52c.72 0 1.34.16 1.86.47.52.31.92.74 1.2 1.29.27.55.41 1.18.41 1.88 0 .19 0 .35-.03.48h-5.52c.07.68.31 1.21.73 1.58s.91.55 1.47.55a2.14 2.14 0 0 0 1.96-1.14l1.25.6a3.78 3.78 0 0 1-1.3 1.39c-.54.34-1.19.5-1.95.5a3.6 3.6 0 0 1-1.87-.49Zm3.76-4.12a1.83 1.83 0 0 0-.9-1.43 2.06 2.06 0 0 0-1.06-.26c-.5 0-.93.15-1.28.46-.35.31-.59.72-.72 1.23h3.96Zm4.36 4.12a3.44 3.44 0 0 1-1.3-1.35 4 4 0 0 1-.47-1.94c0-.68.15-1.31.46-1.9.3-.58.73-1.05 1.27-1.39a3.29 3.29 0 0 1 1.83-.52c.72 0 1.34.16 1.86.47.52.31.92.74 1.2 1.29.28.55.41 1.18.41 1.88 0 .19 0 .35-.03.48h-5.52c.07.68.31 1.21.73 1.58.42.37.91.55 1.47.55a2.14 2.14 0 0 0 1.96-1.14l1.25.6a3.78 3.78 0 0 1-1.3 1.39c-.54.34-1.19.5-1.95.5a3.6 3.6 0 0 1-1.87-.49Zm3.76-4.12a1.83 1.83 0 0 0-.9-1.43 2.03 2.03 0 0 0-1.06-.26c-.5 0-.93.15-1.28.46-.35.31-.59.72-.72 1.23h3.96Z"/><path class="cls-2" d="M338.62 47.65v58.56m6.47-6.47-6.47 6.47-6.48-6.47m-185.73 16.75 6.47 6.47-6.47 6.48m6.47-6.48H117.5m142.09 6.48-6.47-6.48 6.47-6.47m22.43 0 6.48 6.47-6.48 6.48m6.48-6.48h-35.38M203 172.03v33.01m6.48-6.48-6.48 6.48-6.48-6.48"/><rect class="cls-9" x="152.88" y="257.3" width="100.24" height="33.51" rx="5.6" ry="5.6"/><path class="cls-4" d="M188.78 277.79a3.89 3.89 0 0 1-1.39-2.04l1.46-.59c.15.56.42 1.02.8 1.37s.84.53 1.39.53c.5 0 .93-.13 1.28-.39s.53-.62.53-1.08c0-.42-.15-.77-.46-1.04a4.98 4.98 0 0 0-1.6-.8l-.63-.22a4.57 4.57 0 0 1-1.7-1.02 2.29 2.29 0 0 1-.68-1.73c0-.5.13-.95.4-1.37.27-.42.64-.75 1.12-.99a3.59 3.59 0 0 1 1.63-.36 3.2 3.2 0 0 1 3.15 2.07l-1.39.59a1.68 1.68 0 0 0-.59-.87c-.3-.24-.69-.36-1.16-.36s-.84.12-1.16.36a1.1 1.1 0 0 0-.48.92c0 .35.14.63.43.86s.73.45 1.32.65l.64.22c.86.3 1.52.69 1.99 1.16.47.48.7 1.11.7 1.9 0 .65-.17 1.2-.5 1.64a3.1 3.1 0 0 1-1.27.99c-.52.21-1.05.32-1.59.32-.83 0-1.58-.24-2.24-.73Zm8.82.57c-.28-.1-.5-.24-.68-.42a2.2 2.2 0 0 1-.6-1.65v-3.82h-1.25v-1.32h1.25v-2.02h1.51v2.02h1.75v1.32h-1.75v3.52c0 .4.07.68.22.85.16.18.4.27.73.27.17 0 .31-.02.43-.06.12-.04.26-.11.41-.2v1.47c-.32.14-.7.21-1.13.21a2.6 2.6 0 0 1-.89-.15Zm5.73-.46-2.98-6.75h1.68l2.04 4.87h.07l1.97-4.87h1.67l-4.41 10.16h-1.61l1.57-3.42Zm5.3-9.63h1.51v10.02h-1.51v-10.02Zm4.62 9.75a3.44 3.44 0 0 1-1.3-1.35 4 4 0 0 1-.47-1.94c0-.68.15-1.31.46-1.9.3-.58.73-1.05 1.27-1.39a3.29 3.29 0 0 1 1.83-.52c.72 0 1.34.16 1.86.47.52.31.92.74 1.2 1.29s.41 1.18.41 1.88c0 .19 0 .35-.03.48h-5.52c.07.68.31 1.21.73 1.58.42.37.91.55 1.47.55a2.14 2.14 0 0 0 1.96-1.14l1.25.6a3.78 3.78 0 0 1-1.3 1.39c-.54.34-1.19.5-1.95.5a3.6 3.6 0 0 1-1.87-.49Zm3.76-4.12a1.83 1.83 0 0 0-.9-1.43 2.03 2.03 0 0 0-1.06-.26c-.5 0-.93.15-1.28.46-.35.31-.59.72-.72 1.23h3.96Z"/><path class="cls-2" d="M203 238.54v18.76m6.48-6.47L203 257.3l-6.48-6.47"/><rect class="cls-9" x="152.88" y="309.56" width="100.24" height="33.51" rx="5.6" ry="5.6"/><path class="cls-4" d="M181.94 320.53h1.54v8.57h4.31v1.46h-5.85v-10.02Zm8.04 9.94a2.27 2.27 0 0 1-1.28-2.1c0-.49.13-.92.39-1.28a2.6 2.6 0 0 1 1.06-.83c.45-.19.95-.29 1.5-.29a4.99 4.99 0 0 1 1.96.39v-.38c0-.46-.17-.83-.5-1.11a1.98 1.98 0 0 0-1.3-.43 2.25 2.25 0 0 0-1.82.92l-1.04-.8c.31-.44.72-.78 1.23-1.02a3.88 3.88 0 0 1 1.67-.36c1.03 0 1.82.25 2.39.76.56.51.85 1.22.85 2.13v4.47h-1.47v-.88h-.08c-.21.32-.5.58-.88.79s-.82.32-1.3.32c-.51 0-.97-.1-1.37-.3Zm2.66-1.2a2.03 2.03 0 0 0 .98-1.73 3.17 3.17 0 0 0-1.68-.42c-.59 0-1.02.12-1.29.35-.28.23-.41.54-.41.92 0 .34.13.61.38.83.25.21.59.32 1.01.32a2 2 0 0 0 1.02-.27Zm6.19.89-2.98-6.75h1.68l2.04 4.87h.07l1.97-4.87h1.67l-4.41 10.16h-1.61l1.57-3.42Zm6.59.12c-.57-.33-1.01-.79-1.33-1.37s-.48-1.22-.48-1.93.16-1.35.48-1.93a3.57 3.57 0 0 1 3.26-1.87c.72 0 1.35.17 1.92.5s1.01.79 1.33 1.37c.32.58.48 1.22.48 1.92s-.16 1.35-.48 1.93a3.62 3.62 0 0 1-3.24 1.87 3.8 3.8 0 0 1-1.93-.5Zm3.04-1.18c.34-.2.61-.48.81-.84s.31-.79.31-1.27-.1-.91-.31-1.27-.48-.64-.81-.84-.71-.29-1.11-.29-.77.1-1.11.29-.61.48-.82.84c-.21.36-.31.79-.31 1.27s.1.91.31 1.27.48.64.82.84a2.24 2.24 0 0 0 2.22 0Zm4.56.9a3.2 3.2 0 0 1-.68-2.16v-4.42h1.51v4.21c0 .58.13 1.02.41 1.32.27.3.63.45 1.09.45.37 0 .7-.1.99-.29.29-.2.51-.46.67-.78.15-.33.23-.68.23-1.06v-3.84h1.5v7.14h-1.41v-.97h-.08a2.3 2.3 0 0 1-.92.85c-.41.22-.85.34-1.33.34-.86 0-1.51-.26-1.97-.78Zm9.6.63c-.28-.1-.5-.24-.68-.42a2.2 2.2 0 0 1-.6-1.65v-3.82h-1.25v-1.32h1.25v-2.02h1.51v2.02h1.75v1.32h-1.75v3.52c0 .4.08.68.22.85.16.18.4.27.73.27.17 0 .31-.02.43-.06.12-.04.26-.11.41-.2v1.47c-.32.14-.7.21-1.13.21a2.6 2.6 0 0 1-.89-.15Z"/><path class="cls-2" d="M203 290.81v18.75m6.48-6.47-6.48 6.47-6.48-6.47"/><rect class="cls-11" x="152.88" y="361.83" width="100.24" height="33.51" rx="5.6" ry="5.6"/><path class="cls-4" d="M187.92 372.79h3.44c.6 0 1.15.13 1.65.39a2.98 2.98 0 0 1 1.19 4.25c-.29.46-.69.83-1.19 1.09-.5.26-1.05.39-1.65.39h-1.9v3.89h-1.54v-10.02Zm3.49 4.68c.51 0 .93-.16 1.24-.48a1.58 1.58 0 0 0 0-2.26 1.66 1.66 0 0 0-1.24-.48h-1.95v3.22h1.95Zm5.15 5.27a2.27 2.27 0 0 1-1.28-2.1c0-.5.13-.92.39-1.28a2.6 2.6 0 0 1 1.06-.83c.45-.19.95-.29 1.5-.29a4.99 4.99 0 0 1 1.96.39v-.38c0-.46-.17-.83-.5-1.11a1.92 1.92 0 0 0-1.3-.43c-.36 0-.71.08-1.04.24-.33.16-.59.39-.78.67l-1.04-.8c.31-.44.72-.78 1.23-1.02a3.88 3.88 0 0 1 1.67-.36c1.03 0 1.82.25 2.39.76.56.51.85 1.22.85 2.14v4.47h-1.47v-.88h-.08c-.21.32-.5.58-.88.79s-.82.31-1.3.31c-.51 0-.97-.1-1.37-.3Zm2.66-1.2a2.03 2.03 0 0 0 .98-1.73 3.17 3.17 0 0 0-1.68-.42c-.59 0-1.02.12-1.29.35s-.41.54-.41.92c0 .34.13.61.38.83s.59.32 1.01.32a2 2 0 0 0 1.02-.27Zm4.26-7.22c-.2-.2-.3-.44-.3-.72s.1-.52.3-.71c.2-.2.44-.29.72-.29s.52.1.72.29c.2.2.3.43.3.71s-.1.52-.3.72-.44.3-.72.3-.52-.1-.72-.3Zm-.04 1.35h1.51v7.14h-1.51v-7.14Zm3.4 0h1.43v.98h.08c.21-.35.51-.64.92-.87.41-.22.85-.34 1.33-.34.86 0 1.51.25 1.96.76.45.51.67 1.21.67 2.09v4.51h-1.5v-4.31c0-.56-.14-.98-.42-1.25s-.66-.41-1.15-.41c-.35 0-.67.1-.94.29-.28.2-.49.46-.64.78-.15.33-.23.68-.23 1.06v3.84h-1.51v-7.14Zm9.8 7.22c-.28-.1-.5-.24-.68-.42a2.2 2.2 0 0 1-.6-1.65V377h-1.25v-1.32h1.25v-2.02h1.51v2.02h1.75V377h-1.75v3.51c0 .4.07.68.22.85.16.18.4.27.73.27.17 0 .31-.02.43-.06s.26-.11.41-.2v1.47c-.32.14-.7.21-1.13.21a2.6 2.6 0 0 1-.89-.15Z"/><path class="cls-2" d="M203 343.07v18.76m6.48-6.48-6.48 6.48-6.48-6.48"/><rect class="cls-11" x="152.88" y="414.09" width="100.24" height="33.51" rx="5.6" ry="5.6"/><path class="cls-4" d="M170.49 434.62a5.25 5.25 0 0 1-2.57-4.55 5.25 5.25 0 0 1 2.57-4.55c.8-.46 1.68-.69 2.65-.69 1.5 0 2.74.55 3.71 1.64l-1.08 1.05a3.23 3.23 0 0 0-2.61-1.23c-.68 0-1.3.16-1.86.47-.56.31-1 .76-1.33 1.33-.33.57-.49 1.23-.49 1.98s.16 1.41.49 1.98c.33.57.77 1.02 1.33 1.33.56.31 1.18.47 1.86.47 1.14 0 2.1-.47 2.87-1.41l1.11 1.06a5.19 5.19 0 0 1-3.99 1.81c-.97 0-1.85-.23-2.65-.69Zm9.26.19c-.57-.33-1.01-.79-1.33-1.37s-.48-1.22-.48-1.93.16-1.35.48-1.93a3.57 3.57 0 0 1 3.26-1.87 3.57 3.57 0 0 1 3.25 1.87c.32.58.48 1.22.48 1.92s-.16 1.35-.48 1.93a3.62 3.62 0 0 1-3.24 1.87 3.8 3.8 0 0 1-1.93-.5Zm3.04-1.18c.34-.2.61-.48.81-.84.21-.36.31-.79.31-1.27s-.1-.91-.31-1.27-.48-.64-.81-.84-.71-.29-1.11-.29-.77.1-1.11.29-.61.48-.82.84c-.21.36-.31.79-.31 1.27s.1.91.31 1.27.48.64.82.84a2.24 2.24 0 0 0 2.22 0Zm3.86-5.69h1.43v.98h.08a2.59 2.59 0 0 1 2.2-1.21c.51 0 .96.12 1.34.36.38.24.65.57.82.97a2.77 2.77 0 0 1 2.43-1.33c.82 0 1.44.25 1.86.75.42.5.63 1.18.63 2.04v4.58h-1.5v-4.33c0-1.1-.47-1.65-1.4-1.65-.51 0-.93.21-1.25.62-.32.41-.48.92-.48 1.54v3.82h-1.5v-4.33c0-1.1-.48-1.65-1.44-1.65-.49 0-.9.21-1.22.62-.32.42-.48.93-.48 1.55v3.81h-1.51v-7.14Zm12.45 0h1.43v.97h.08c.21-.34.51-.62.92-.85s.87-.34 1.38-.34c.64 0 1.23.16 1.75.49.52.33.93.78 1.23 1.35.3.57.45 1.22.45 1.95s-.15 1.38-.45 1.96a3.29 3.29 0 0 1-2.98 1.83c-.51 0-.97-.12-1.38-.34s-.71-.51-.92-.83h-.08l.08.99v2.98h-1.51v-10.16Zm4.65 5.68c.33-.2.6-.48.79-.85.2-.36.29-.78.29-1.26s-.1-.9-.29-1.26c-.2-.36-.46-.65-.79-.85a2.04 2.04 0 0 0-2.13 0c-.33.2-.6.48-.8.85-.2.36-.3.78-.3 1.26s.1.9.3 1.26c.2.36.47.65.8.85a2.04 2.04 0 0 0 2.13 0Zm5.4 1.19c-.57-.33-1.01-.79-1.33-1.37s-.48-1.22-.48-1.93.16-1.35.48-1.93a3.57 3.57 0 0 1 3.26-1.87c.72 0 1.35.17 1.92.5s1.01.79 1.33 1.37c.32.58.48 1.22.48 1.92s-.16 1.35-.48 1.93a3.62 3.62 0 0 1-3.24 1.87 3.8 3.8 0 0 1-1.93-.5Zm3.04-1.18c.34-.2.61-.48.81-.84s.31-.79.31-1.27-.1-.91-.31-1.27-.48-.64-.81-.84-.71-.29-1.11-.29-.77.1-1.11.29-.61.48-.82.84c-.21.36-.31.79-.31 1.27s.1.91.31 1.27.48.64.82.84a2.24 2.24 0 0 0 2.22 0Zm4.53 1.14a2.8 2.8 0 0 1-1.11-1.39l1.36-.59c.17.38.41.67.71.88.31.2.66.3 1.05.3s.74-.07 1.01-.22a.7.7 0 0 0 .41-.65.7.7 0 0 0-.34-.62 3.43 3.43 0 0 0-1.07-.4l-.85-.2a3.08 3.08 0 0 1-1.41-.74c-.37-.35-.56-.8-.56-1.34 0-.41.12-.78.37-1.09.25-.32.58-.56.99-.73a3.6 3.6 0 0 1 1.37-.26c.67 0 1.26.13 1.76.39s.86.64 1.08 1.15l-1.3.59c-.29-.57-.8-.85-1.53-.85-.35 0-.65.08-.89.22-.24.15-.36.34-.36.56 0 .42.36.72 1.09.91l1.04.25c.7.18 1.23.44 1.59.8s.54.79.54 1.32c0 .45-.13.84-.38 1.18s-.61.6-1.06.79c-.45.19-.94.28-1.48.28-.81 0-1.48-.18-2.01-.53Zm6.33-8.18c-.2-.2-.3-.44-.3-.72s.1-.52.3-.71c.2-.2.44-.29.72-.29s.52.1.72.29c.2.2.3.43.3.71s-.1.52-.3.72-.44.3-.72.3-.52-.1-.72-.3Zm-.03 1.35h1.51v7.14h-1.51v-7.14Zm5.35 7.21c-.28-.1-.5-.24-.68-.42a2.2 2.2 0 0 1-.6-1.65v-3.82h-1.25v-1.32h1.25v-2.02h1.51v2.02h1.75v1.32h-1.75v3.52c0 .4.07.68.22.85.16.18.4.27.73.27.17 0 .31-.02.43-.06s.26-.11.41-.2v1.47c-.32.14-.7.21-1.13.21a2.6 2.6 0 0 1-.89-.15Zm4.56-.34a3.44 3.44 0 0 1-1.3-1.35 4 4 0 0 1-.47-1.94c0-.68.15-1.31.46-1.9.3-.58.73-1.05 1.27-1.39a3.29 3.29 0 0 1 1.83-.52c.72 0 1.34.16 1.86.47.52.31.92.74 1.2 1.29s.41 1.18.41 1.88c0 .19 0 .35-.03.48h-5.52c.07.68.31 1.21.73 1.58.42.37.91.55 1.47.55a2.14 2.14 0 0 0 1.96-1.14l1.25.6a3.78 3.78 0 0 1-1.3 1.39c-.54.34-1.19.5-1.95.5a3.6 3.6 0 0 1-1.87-.49Zm3.76-4.12a1.83 1.83 0 0 0-.9-1.43 2.03 2.03 0 0 0-1.06-.26c-.5 0-.93.15-1.28.46-.35.31-.59.72-.72 1.23h3.96Z"/><path class="cls-2" d="M203 395.33v18.76m6.48-6.48-6.48 6.48-6.48-6.48"/><rect x="152.88" y="466.35" width="100.24" height="33.51" rx="5.6" ry="5.6" style="fill:#f8f9fb;stroke:#202124;stroke-linecap:round;stroke-linejoin:round;stroke-width:1.5px"/><path d="M180.55 477.32h3.21c1.04 0 1.94.21 2.71.63s1.36 1.01 1.78 1.77c.42.76.62 1.63.62 2.61s-.21 1.85-.62 2.61c-.42.76-1.01 1.35-1.78 1.77s-1.67.63-2.71.63h-3.21v-10.02Zm3.16 8.57c1.14 0 2.02-.31 2.65-.94.63-.63.94-1.5.94-2.61s-.31-1.98-.94-2.61a3.58 3.58 0 0 0-2.65-.94h-1.62v7.11h1.62Zm6.82-7.04c-.2-.2-.3-.44-.3-.72s.1-.52.3-.71.44-.29.72-.29.52.1.72.29c.2.2.3.43.3.71s-.1.52-.3.72-.44.3-.72.3-.52-.1-.72-.3Zm-.03 1.35h1.51v7.14h-1.51v-7.14Zm3.97 6.83a2.8 2.8 0 0 1-1.11-1.39l1.36-.59c.17.38.41.67.71.88.31.2.66.3 1.05.3s.74-.07 1.01-.22a.7.7 0 0 0 .41-.65.7.7 0 0 0-.34-.62 3.43 3.43 0 0 0-1.07-.4l-.85-.2a3.08 3.08 0 0 1-1.41-.74c-.37-.35-.56-.8-.56-1.34 0-.41.12-.78.37-1.09.25-.32.58-.56.99-.73a3.6 3.6 0 0 1 1.37-.26c.67 0 1.26.13 1.76.39s.86.64 1.08 1.15l-1.3.59c-.29-.57-.8-.85-1.53-.85-.35 0-.65.08-.89.22-.24.15-.36.34-.36.56 0 .42.36.72 1.09.91l1.04.25c.7.18 1.23.44 1.59.8.36.35.54.79.54 1.32 0 .45-.13.84-.39 1.18s-.61.6-1.06.79c-.45.19-.94.28-1.48.28-.81 0-1.48-.18-2.01-.53Zm6.13-6.83h1.43v.97h.08c.21-.34.51-.62.92-.85s.87-.34 1.38-.34c.64 0 1.23.16 1.75.49.52.33.93.78 1.23 1.35.3.57.45 1.22.45 1.95s-.15 1.38-.45 1.96a3.29 3.29 0 0 1-2.98 1.83c-.51 0-.97-.12-1.38-.34s-.71-.51-.92-.83h-.08l.08.99v2.98h-1.51V480.2Zm4.65 5.68c.33-.2.6-.48.79-.85.2-.36.29-.78.29-1.26s-.1-.9-.29-1.26c-.2-.36-.46-.65-.79-.85a2.04 2.04 0 0 0-2.13 0c-.33.2-.6.48-.8.85-.2.36-.3.78-.3 1.26s.1.9.3 1.26c.2.36.47.65.8.85a2.04 2.04 0 0 0 2.13 0Zm3.83-8.56h1.51v10.02h-1.51v-10.02Zm4.09 9.94a2.27 2.27 0 0 1-1.28-2.1c0-.49.13-.92.39-1.28a2.6 2.6 0 0 1 1.06-.83c.45-.19.95-.29 1.5-.29a4.99 4.99 0 0 1 1.96.39v-.38c0-.46-.17-.83-.5-1.11a1.98 1.98 0 0 0-1.3-.43 2.25 2.25 0 0 0-1.82.92l-1.04-.8c.31-.44.72-.78 1.22-1.02a3.88 3.88 0 0 1 1.67-.36c1.03 0 1.82.25 2.39.76.56.51.85 1.22.85 2.13v4.47h-1.47v-.88h-.08c-.21.32-.5.58-.88.79s-.82.32-1.3.32c-.51 0-.97-.1-1.37-.3Zm2.66-1.2a2.03 2.03 0 0 0 .98-1.73 3.17 3.17 0 0 0-1.68-.42c-.59 0-1.02.12-1.29.35-.28.23-.41.54-.41.92 0 .34.13.61.38.83.25.21.59.32 1.01.32a2 2 0 0 0 1.02-.27Zm6.19.89-2.98-6.75h1.68l2.04 4.87h.07l1.97-4.87h1.67l-4.41 10.16h-1.61l1.57-3.42Z" style="fill:#202124;stroke-width:0"/><path class="cls-2" d="M203 447.6v18.75m6.48-6.47-6.48 6.47-6.48-6.47"/></svg>